<svg id="visual" viewBox="0 0 900 600" width="900" height="600" xmlns="http://www.w3.org/2000/svg" xmlns:xlink="http://www.w3.org/1999/xlink" version="1.1"><path d="M0 97L21.5 99C43 101 86 105 128.8 95C171.7 85 214.3 61 257.2 56C300 51 343 65 385.8 73C428.7 81 471.3 83 514.2 79C557 75 600 65 642.8 59C685.7 53 728.3 51 771.2 58C814 65 857 81 878.5 89L900 97L900 0L878.5 0C857 0 814 0 771.2 0C728.3 0 685.7 0 642.8 0C600 0 557 0 514.2 0C471.3 0 428.7 0 385.8 0C343 0 300 0 257.2 0C214.3 0 171.7 0 128.8 0C86 0 43 0 21.5 0L0 0Z" fill="#1e324f"></path><path d="M0 121L21.5 123C43 125 86 129 128.8 121C171.7 113 214.3 93 257.2 93C300 93 343 113 385.8 125C428.7 137 471.3 141 514.2 135C557 129 600 113 642.8 103C685.7 93 728.3 89 771.2 99C814 109 857 133 878.5 145L900 157L900 95L878.5 87C857 79 814 63 771.2 56C728.3 49 685.7 51 642.8 57C600 63 557 73 514.2 77C471.3 81 428.7 79 385.8 71C343 63 300 49 257.2 54C214.3 59 171.7 83 128.8 93C86 103 43 99 21.5 97L0 95Z" fill="#203554"></path><path d="M0 247L21.5 251C43 255 86 263 128.8 260C171.7 257 214.3 243 257.2 238C300 233 343 237 385.8 239C428.7 241 471.3 241 514.2 243C557 245 600 249 642.8 245C685.7 241 728.3 229 771.2 229C814 229 857 241 878.5 247L900 253L900 155L878.5 143C857 131 814 107 771.2 97C728.3 87 685.7 91 642.8 101C600 111 557 127 514.2 133C471.3 139 428.7 135 385.8 123C343 111 300 91 257.2 91C214.3 91 171.7 111 128.8 119C86 127 43 123 21.5 121L0 119Z" fill="#22395a"></path><path d="M0 277L21.5 281C43 285 86 293 128.8 292C171.7 291 214.3 281 257.2 279C300 277 343 283 385.8 286C428.7 289 471.3 289 514.2 287C557 285 600 281 642.8 273C685.7 265 728.3 253 771.2 255C814 257 857 273 878.5 281L900 289L900 251L878.5 245C857 239 814 227 771.2 227C728.3 227 685.7 239 642.8 243C600 247 557 243 514.2 241C471.3 239 428.7 239 385.8 237C343 235 300 231 257.2 236C214.3 241 171.7 255 128.8 258C86 261 43 253 21.5 249L0 245Z" fill="#243c60"></path><path d="M0 349L21.5 345C43 341 86 333 128.8 331C171.7 329 214.3 333 257.2 336C300 339 343 341 385.8 344C428.7 347 471.3 351 514.2 353C557 355 600 355 642.8 348C685.7 341 728.3 327 771.2 326C814 325 857 337 878.5 343L900 349L900 287L878.5 279C857 271 814 255 771.2 253C728.3 251 685.7 263 642.8 271C600 279 557 283 514.2 285C471.3 287 428.7 287 385.8 284C343 281 300 275 257.2 277C214.3 279 171.7 289 128.8 290C86 291 43 283 21.5 279L0 275Z" fill="#264065"></path><path d="M0 427L21.5 422C43 417 86 407 128.8 396C171.7 385 214.3 373 257.2 370C300 367 343 373 385.8 376C428.7 379 471.3 379 514.2 381C557 383 600 387 642.8 386C685.7 385 728.3 379 771.2 377C814 375 857 377 878.5 378L900 379L900 347L878.5 341C857 335 814 323 771.2 324C728.3 325 685.7 339 642.8 346C600 353 557 353 514.2 351C471.3 349 428.7 345 385.8 342C343 339 300 337 257.2 334C214.3 331 171.7 327 128.8 329C86 331 43 339 21.5 343L0 347Z" fill="#28436b"></path><path d="M0 457L21.5 453C43 449 86 441 128.8 431C171.7 421 214.3 409 257.2 409C300 409 343 421 385.8 423C428.7 425 471.3 417 514.2 419C557 421 600 433 642.8 431C685.7 429 728.3 413 771.2 408C814 403 857 409 878.5 412L900 415L900 377L878.5 376C857 375 814 373 771.2 375C728.3 377 685.7 383 642.8 384C600 385 557 381 514.2 379C471.3 377 428.7 377 385.8 374C343 371 300 365 257.2 368C214.3 371 171.7 383 128.8 394C86 405 43 415 21.5 420L0 425Z" fill="#304a72"></path><path d="M0 481L21.5 475C43 469 86 457 128.8 449C171.7 441 214.3 437 257.2 437C300 437 343 441 385.8 439C428.7 437 471.3 429 514.2 434C557 439 600 457 642.8 459C685.7 461 728.3 447 771.2 439C814 431 857 429 878.5 428L900 427L900 413L878.5 410C857 407 814 401 771.2 406C728.3 411 685.7 427 642.8 429C600 431 557 419 514.2 417C471.3 415 428.7 423 385.8 421C343 419 300 407 257.2 407C214.3 407 171.7 419 128.8 429C86 439 43 447 21.5 451L0 455Z" fill="#385179"></path><path d="M0 559L21.5 554C43 549 86 539 128.8 537C171.7 535 214.3 541 257.2 545C300 549 343 551 385.8 551C428.7 551 471.3 549 514.2 548C557 547 600 547 642.8 546C685.7 545 728.3 543 771.2 545C814 547 857 553 878.5 556L900 559L900 425L878.5 426C857 427 814 429 771.2 437C728.3 445 685.7 459 642.8 457C600 455 557 437 514.2 432C471.3 427 428.7 435 385.8 437C343 439 300 435 257.2 435C214.3 435 171.7 439 128.8 447C86 455 43 467 21.5 473L0 479Z" fill="#405880"></path><path d="M0 577L21.5 575C43 573 86 569 128.8 567C171.7 565 214.3 565 257.2 566C300 567 343 569 385.8 572C428.7 575 471.3 579 514.2 581C557 583 600 583 642.8 581C685.7 579 728.3 575 771.2 574C814 573 857 575 878.5 576L900 577L900 557L878.5 554C857 551 814 545 771.2 543C728.3 541 685.7 543 642.8 544C600 545 557 545 514.2 546C471.3 547 428.7 549 385.8 549C343 549 300 547 257.2 543C214.3 539 171.7 533 128.8 535C86 537 43 547 21.5 552L0 557Z" fill="#476088"></path><path d="M0 601L21.5 601C43 601 86 601 128.8 601C171.7 601 214.3 601 257.2 601C300 601 343 601 385.8 601C428.7 601 471.3 601 514.2 601C557 601 600 601 642.8 601C685.7 601 728.3 601 771.2 601C814 601 857 601 878.5 601L900 601L900 575L878.5 574C857 573 814 571 771.2 572C728.3 573 685.7 577 642.8 579C600 581 557 581 514.2 579C471.3 577 428.7 573 385.8 570C343 567 300 565 257.2 564C214.3 563 171.7 563 128.8 565C86 567 43 571 21.5 573L0 575Z" fill="#4f678f"></path></svg>